<svg width="180" height="74" viewBox="0 0 180 74" fill="none" xmlns="http://www.w3.org/2000/svg">
<g clip-path="url(#clip0_3152_14635)">
<rect x="0.35498" y="9.9408" width="53.2544" height="53.2544" rx="26.6272" fill="#8D75F5"/>
<path d="M39.9601 38.9522C39.9601 40.8362 39.5831 42.4573 38.8693 43.641C37.953 45.1614 36.5288 45.9658 34.751 45.9658C31.3577 45.9658 29.0765 41.7089 26.6621 37.2024C24.9079 33.9288 22.7307 29.8553 20.9407 29.8553C20.0781 29.8553 19.0208 30.9036 18.1817 32.5907C17.2219 34.5754 16.7123 36.7476 16.6892 38.9522C16.6892 40.3283 16.9399 41.5008 17.3941 42.2548C17.8159 42.9552 18.3943 43.2808 19.2132 43.2808C20.7516 43.2808 22.6401 40.0363 23.261 38.9745C23.4404 38.6668 23.7346 38.443 24.0791 38.3522C24.4235 38.2615 24.7898 38.3113 25.0975 38.4906C25.4052 38.67 25.6291 38.9643 25.7198 39.3087C25.8106 39.6531 25.7608 40.0194 25.5814 40.3271C24.5846 42.0367 23.732 43.236 22.8963 44.1064C21.6958 45.3572 20.4931 45.9658 19.2132 45.9658C17.4355 45.9658 16.0113 45.1614 15.095 43.641C14.3812 42.4573 14.0042 40.8362 14.0042 38.9522C14.0042 34.0328 16.6423 27.1702 20.9407 27.1702C24.3339 27.1702 26.6152 31.4272 29.0295 35.9337C30.786 39.2072 32.9643 43.2808 34.751 43.2808C35.57 43.2808 36.1484 42.9552 36.5702 42.2548C37.0244 41.5008 37.275 40.3283 37.275 38.9522C37.2523 36.7477 36.7431 34.5755 35.7836 32.5907C34.9446 30.9036 33.8873 29.8553 33.0236 29.8553C32.3836 29.8553 31.6128 30.4147 30.7312 31.5144C30.5086 31.7925 30.1848 31.9707 29.8308 32.0099C29.4769 32.0492 29.1218 31.9462 28.8438 31.7236C28.5658 31.5011 28.3875 31.1772 28.3483 30.8233C28.3091 30.4693 28.412 30.1143 28.6346 29.8362C30.0722 28.0428 31.5076 27.1702 33.0236 27.1702C34.9983 27.1702 36.8275 28.6705 38.1868 31.3947C39.3271 33.7526 39.9326 36.3332 39.9601 38.9522Z" fill="white"/>
<path d="M84.8954 51.6666V23.1472H89.2955V51.6666H84.8954ZM66.2762 51.6666V23.1472H70.6764V51.6666H66.2762ZM68.1911 39.5662V35.329H86.851V39.5662H68.1911Z" fill="#16151C"/>
<path d="M97.2704 51.6666V23.1472H109.412C111.041 23.1472 112.535 23.5546 113.893 24.3694C115.278 25.1571 116.378 26.2436 117.193 27.6288C118.008 28.9869 118.416 30.5215 118.416 32.2326C118.416 33.7808 118.008 35.2204 117.193 36.5513C116.378 37.8822 115.292 38.9551 113.934 39.7699C112.576 40.5576 111.068 40.9514 109.412 40.9514H101.671V51.6666H97.2704ZM114.219 51.6666L106.967 38.7921L111.489 37.7736L119.556 51.7073L114.219 51.6666ZM101.671 36.7143H109.819C110.607 36.7143 111.313 36.5241 111.938 36.1439C112.562 35.7365 113.051 35.1932 113.404 34.5142C113.757 33.808 113.934 33.0339 113.934 32.1919C113.934 31.2413 113.703 30.4128 113.241 29.7066C112.807 28.9733 112.182 28.4029 111.367 27.9955C110.579 27.588 109.683 27.3843 108.678 27.3843H101.671V36.7143Z" fill="#16151C"/>
<path d="M125.599 51.6666V23.1472H129.918L140.307 40.0551L138.229 40.0144L148.74 23.1472H152.815V51.6666H148.414V39.9736C148.414 37.5291 148.469 35.329 148.577 33.3734C148.713 31.4178 148.93 29.4758 149.229 27.5473L149.8 29.0548L140.47 43.4774H137.781L128.736 29.2177L129.184 27.5473C129.483 29.3671 129.687 31.2413 129.795 33.1697C129.931 35.071 129.999 37.339 129.999 39.9736V51.6666H125.599Z" fill="#16151C"/>
<path d="M169.611 52.074C168.063 52.074 166.623 51.8703 165.292 51.4629C163.988 51.0555 162.793 50.4443 161.707 49.6295C160.648 48.7875 159.697 47.7554 158.855 46.5331L161.87 43.07C163.201 44.9713 164.477 46.2886 165.7 47.022C166.922 47.7554 168.375 48.122 170.059 48.122C171.091 48.122 172.028 47.9591 172.87 47.6331C173.712 47.3072 174.378 46.859 174.867 46.2886C175.355 45.7183 175.6 45.0664 175.6 44.333C175.6 43.8441 175.518 43.3824 175.355 42.9478C175.192 42.5132 174.934 42.1194 174.581 41.7663C174.255 41.4132 173.821 41.0872 173.278 40.7885C172.762 40.4897 172.15 40.2317 171.444 40.0144C170.738 39.7699 169.923 39.5662 169 39.4032C167.533 39.1045 166.256 38.7106 165.17 38.2217C164.083 37.7328 163.174 37.1217 162.44 36.3883C161.707 35.655 161.164 34.8266 160.811 33.9031C160.457 32.9524 160.281 31.8931 160.281 30.7252C160.281 29.5844 160.525 28.5251 161.014 27.5473C161.53 26.5695 162.223 25.7275 163.092 25.0213C163.988 24.2879 165.034 23.7311 166.229 23.3509C167.424 22.9435 168.714 22.7397 170.1 22.7397C171.566 22.7397 172.911 22.9299 174.133 23.3101C175.355 23.6904 176.442 24.2608 177.393 25.0213C178.343 25.7547 179.131 26.6646 179.756 27.751L176.659 30.8067C176.116 29.9103 175.505 29.1634 174.826 28.5659C174.147 27.9411 173.4 27.4794 172.585 27.1806C171.77 26.8547 170.901 26.6917 169.977 26.6917C168.918 26.6917 167.995 26.8547 167.207 27.1806C166.419 27.5066 165.795 27.9683 165.333 28.5659C164.898 29.1362 164.681 29.8153 164.681 30.603C164.681 31.1733 164.79 31.703 165.007 32.1919C165.224 32.6536 165.55 33.0746 165.985 33.4549C166.446 33.808 167.058 34.1339 167.818 34.4327C168.579 34.7043 169.489 34.9488 170.548 35.1661C172.042 35.492 173.373 35.913 174.541 36.4291C175.709 36.918 176.7 37.5019 177.515 38.181C178.33 38.86 178.941 39.6205 179.348 40.4625C179.783 41.3045 180 42.2144 180 43.1923C180 45.0121 179.579 46.5874 178.737 47.9183C177.895 49.2492 176.7 50.2814 175.152 51.0147C173.604 51.7209 171.757 52.074 169.611 52.074Z" fill="#16151C"/>
</g>
<defs>
<clipPath id="clip0_3152_14635">
<rect width="180" height="73.1361" fill="white"/>
</clipPath>
</defs>
</svg>
