<svg width="180" height="74" viewBox="0 0 180 74" fill="none" xmlns="http://www.w3.org/2000/svg">
<rect x="0.35498" y="9.9408" width="53.2544" height="53.2544" rx="26.6272" fill="#8D75F5"/>
<path d="M39.9603 38.9522C39.9603 40.8362 39.5833 42.4573 38.8695 43.641C37.9532 45.1614 36.529 45.9658 34.7512 45.9658C31.358 45.9658 29.0767 41.7089 26.6624 37.2024C24.9081 33.9288 22.731 29.8553 20.9409 29.8553C20.0783 29.8553 19.0211 30.9036 18.182 32.5907C17.2222 34.5754 16.7125 36.7476 16.6895 38.9522C16.6895 40.3283 16.9401 41.5008 17.3943 42.2548C17.8161 42.9552 18.3945 43.2808 19.2135 43.2808C20.7518 43.2808 22.6403 40.0363 23.2613 38.9745C23.4406 38.6668 23.7349 38.443 24.0793 38.3522C24.4237 38.2615 24.7901 38.3113 25.0978 38.4906C25.4055 38.67 25.6293 38.9643 25.7201 39.3087C25.8108 39.6531 25.761 40.0194 25.5816 40.3271C24.5848 42.0367 23.7323 43.236 22.8965 44.1064C21.6961 45.3572 20.4934 45.9658 19.2135 45.9658C17.4357 45.9658 16.0115 45.1614 15.0952 43.641C14.3814 42.4573 14.0044 40.8362 14.0044 38.9522C14.0044 34.0328 16.6425 27.1702 20.9409 27.1702C24.3342 27.1702 26.6154 31.4272 29.0298 35.9337C30.7863 39.2072 32.9645 43.2808 34.7512 43.2808C35.5702 43.2808 36.1486 42.9552 36.5704 42.2548C37.0246 41.5008 37.2752 40.3283 37.2752 38.9522C37.2525 36.7477 36.7433 34.5755 35.7839 32.5907C34.9448 30.9036 33.8875 29.8553 33.0238 29.8553C32.3839 29.8553 31.613 30.4147 30.7314 31.5144C30.5089 31.7925 30.185 31.9707 29.8311 32.0099C29.4771 32.0492 29.1221 31.9462 28.844 31.7236C28.566 31.5011 28.3878 31.1772 28.3485 30.8233C28.3093 30.4693 28.4123 30.1143 28.6348 29.8362C30.0725 28.0428 31.5079 27.1702 33.0238 27.1702C34.9985 27.1702 36.8277 28.6705 38.1871 31.3947C39.3273 33.7526 39.9328 36.3332 39.9603 38.9522Z" fill="white"/>
<path d="M84.8955 51.6666V23.1472H89.2956V51.6666H84.8955ZM66.2764 51.6666V23.1472H70.6765V51.6666H66.2764ZM68.1912 39.5662V35.329H86.8511V39.5662H68.1912Z" fill="white"/>
<path d="M97.2706 51.6666V23.1472H109.412C111.041 23.1472 112.535 23.5546 113.893 24.3694C115.279 25.1571 116.379 26.2436 117.193 27.6288C118.008 28.9869 118.416 30.5215 118.416 32.2326C118.416 33.7808 118.008 35.2204 117.193 36.5513C116.379 37.8822 115.292 38.9551 113.934 39.7699C112.576 40.5576 111.069 40.9514 109.412 40.9514H101.671V51.6666H97.2706ZM114.219 51.6666L106.967 38.7921L111.49 37.7736L119.556 51.7073L114.219 51.6666ZM101.671 36.7143H109.819C110.607 36.7143 111.313 36.5241 111.938 36.1439C112.562 35.7365 113.051 35.1932 113.404 34.5142C113.757 33.808 113.934 33.0339 113.934 32.1919C113.934 31.2413 113.703 30.4128 113.241 29.7066C112.807 28.9733 112.182 28.4029 111.367 27.9955C110.58 27.588 109.683 27.3843 108.678 27.3843H101.671V36.7143Z" fill="white"/>
<path d="M125.599 51.6666V23.1472H129.918L140.307 40.0551L138.229 40.0144L148.74 23.1472H152.815V51.6666H148.415V39.9736C148.415 37.5291 148.469 35.329 148.578 33.3734C148.713 31.4178 148.931 29.4758 149.229 27.5473L149.8 29.0548L140.47 43.4774H137.781L128.736 29.2177L129.184 27.5473C129.483 29.3671 129.687 31.2413 129.795 33.1697C129.931 35.071 129.999 37.339 129.999 39.9736V51.6666H125.599Z" fill="white"/>
<path d="M169.611 52.074C168.063 52.074 166.623 51.8703 165.292 51.4629C163.989 51.0555 162.793 50.4443 161.707 49.6295C160.648 48.7875 159.697 47.7554 158.855 46.5331L161.87 43.07C163.201 44.9713 164.477 46.2886 165.7 47.022C166.922 47.7554 168.375 48.122 170.059 48.122C171.091 48.122 172.028 47.9591 172.87 47.6331C173.712 47.3072 174.378 46.859 174.867 46.2886C175.356 45.7183 175.6 45.0664 175.6 44.333C175.6 43.8441 175.519 43.3824 175.356 42.9478C175.193 42.5132 174.935 42.1194 174.581 41.7663C174.256 41.4132 173.821 41.0872 173.278 40.7885C172.762 40.4897 172.15 40.2317 171.444 40.0144C170.738 39.7699 169.923 39.5662 169 39.4032C167.533 39.1045 166.256 38.7106 165.17 38.2217C164.084 37.7328 163.174 37.1217 162.44 36.3883C161.707 35.655 161.164 34.8266 160.811 33.9031C160.458 32.9524 160.281 31.8931 160.281 30.7252C160.281 29.5844 160.525 28.5251 161.014 27.5473C161.53 26.5695 162.223 25.7275 163.092 25.0213C163.988 24.2879 165.034 23.7311 166.229 23.3509C167.424 22.9435 168.715 22.7397 170.1 22.7397C171.567 22.7397 172.911 22.9299 174.133 23.3101C175.356 23.6904 176.442 24.2608 177.393 25.0213C178.343 25.7547 179.131 26.6646 179.756 27.751L176.659 30.8067C176.116 29.9103 175.505 29.1634 174.826 28.5659C174.147 27.9411 173.4 27.4794 172.585 27.1806C171.77 26.8547 170.901 26.6917 169.978 26.6917C168.918 26.6917 167.995 26.8547 167.207 27.1806C166.419 27.5066 165.795 27.9683 165.333 28.5659C164.898 29.1362 164.681 29.8153 164.681 30.603C164.681 31.1733 164.79 31.703 165.007 32.1919C165.224 32.6536 165.55 33.0746 165.985 33.4549C166.447 33.808 167.058 34.1339 167.818 34.4327C168.579 34.7043 169.489 34.9488 170.548 35.1661C172.042 35.492 173.373 35.913 174.541 36.4291C175.709 36.918 176.7 37.5019 177.515 38.181C178.33 38.86 178.941 39.6205 179.348 40.4625C179.783 41.3045 180 42.2144 180 43.1923C180 45.0121 179.579 46.5874 178.737 47.9183C177.895 49.2492 176.7 50.2814 175.152 51.0147C173.604 51.7209 171.757 52.074 169.611 52.074Z" fill="white"/>
</svg>
